<svg xmlns="http://www.w3.org/2000/svg" viewBox="0 0 30 32" width="48" height="48">
  <path d="M26.462,12.477 C25.812,13.265 24.14,13.585 22.811,13.179 C21.544,12.791 21.136,11.903 21.822,11.203 C22.484,10.528 23.964,10.237 25.197,10.542 C26.486,10.86 27.086,11.72 26.462,12.477 M20.601,10.867 C19.908,11.545 18.419,11.837 17.344,11.508 C16.746,11.325 16.416,10.945 16.398,10.627 C16.385,10.382 15.999,10.157 15.574,10.036 C15.146,9.913 14.651,9.925 14.155,9.982 C14.029,9.997 13.764,10.052 13.594,10.106 C13.138,10.252 12.743,10.416 12.414,10.677 C12.005,11.003 11.869,11.581 11.878,11.796 C11.891,12.098 12.182,12.355 12.624,12.514 C13.058,12.671 13.599,12.699 14.137,12.618 C14.794,12.449 15.514,12.442 16.105,12.64 C17.186,13.005 17.459,13.937 16.641,14.736 C15.789,15.568 14.15,15.881 13.06,15.422 C12.456,15.168 12.244,14.704 12.212,14.275 C12.187,13.94 11.873,13.672 11.446,13.504 C11.016,13.336 10.514,13.342 9.953,13.388 C9.879,13.394 9.546,13.458 9.34,13.51 C9.059,13.581 8.481,13.736 7.996,14.193 C7.612,14.554 7.441,14.895 7.343,15.1 C7.287,15.218 7.219,15.485 7.216,15.576 C7.203,15.954 7.427,16.295 7.863,16.514 C8.293,16.73 8.861,16.788 9.448,16.706 C10.179,16.516 10.945,16.536 11.538,16.813 C12.628,17.322 12.755,18.532 11.732,19.531 C10.661,20.578 8.836,20.913 7.757,20.268 C7.165,19.915 6.993,19.382 7.077,18.761 C7.077,18.76 7.076,18.759 7.076,18.758 C7.076,18.755 7.074,18.609 7.054,18.532 C7.054,18.532 7.038,18.409 6.956,18.251 C6.847,18.039 6.665,17.864 6.419,17.728 C5.998,17.495 5.442,17.436 4.862,17.519 C4.136,17.707 3.425,17.68 2.958,17.401 C2.162,16.925 2.4,15.916 3.422,15.153 C3.949,14.76 4.591,14.501 5.197,14.401 L5.2,14.399 C5.777,14.287 6.372,14.037 6.837,13.68 C7.294,13.329 7.532,12.947 7.553,12.617 L7.555,12.615 C7.557,12.608 7.562,12.438 7.53,12.257 C7.51,11.972 7.525,11.69 7.795,11.382 C7.969,11.186 8.344,10.995 8.755,10.921 C9.037,10.871 9.399,10.882 9.604,10.872 C9.781,10.863 10.091,10.828 10.2,10.797 C10.615,10.678 10.862,10.545 11.169,10.31 C11.482,10.069 11.677,9.816 11.711,9.586 C11.718,9.537 11.735,9.312 11.73,9.285 C11.625,8.745 12.411,8.152 13.486,7.961 C14.031,7.865 14.544,7.89 14.933,8.008 C14.946,8.011 14.96,8.013 14.973,8.017 C15.367,8.114 15.617,8.295 15.712,8.516 L15.716,8.517 C15.717,8.523 15.718,8.528 15.718,8.533 C15.734,8.573 15.745,8.614 15.751,8.657 C15.844,8.894 16.114,9.097 16.553,9.213 C16.984,9.326 17.497,9.335 17.993,9.255 C18.592,9.102 19.268,9.077 19.848,9.221 C20.906,9.482 21.27,10.214 20.601,10.867 M18.09,22.881 C17.031,24.172 14.914,24.545 13.498,23.699 C12.164,22.901 12.046,21.359 13.118,20.262 C14.141,19.214 15.959,18.878 17.282,19.496 C18.681,20.149 19.096,21.655 18.09,22.881 M28.482,7.286 L15.768,0.261 C15.138,-0.087 14.362,-0.087 13.732,0.261 L1.018,7.286 C0.388,7.635 0,8.278 0,8.975 L0,23.025 C0,23.722 0.388,24.365 1.018,24.714 L13.732,31.739 C14.362,32.087 15.138,32.087 15.768,31.739 L28.482,24.714 C29.112,24.365 29.5,23.722 29.5,23.025 L29.5,8.975 C29.5,8.278 29.112,7.635 28.482,7.286" fill="#002FA7"></path>
</svg>
